External Loads File
version=1
nRows=85
nColumns=13
Range=5.000000e-03-10 seconds
endheader
time 	forceRightX 	forceRightY 	forceRightZ 	pointRightX 	pointRightY 	pointRightZ 	forceLeftX 	forceLeftY 	forceLeftZ 	pointLeftX 	pointLeftY 	pointLeftZ 		
2.505000 -64.674692 -102.627469 -0.000000 0.207620 0.472951 -0.147477 38.500419 1357.499309 -0.000000 0.356469 0.179170 -0.378233
2.510000 -64.644615 -94.639889 -0.000000 0.214441 0.478101 -0.148020 71.128536 1309.403744 -0.000000 0.349971 0.174780 -0.378098
2.515000 -64.510506 -87.013185 -0.000000 0.221033 0.483014 -0.148360 101.343243 1251.394043 -0.000000 0.343296 0.170768 -0.377944
2.520000 -64.734943 -79.430720 -0.000000 0.228017 0.487298 -0.148678 129.957105 1183.991065 -0.000000 0.336433 0.167150 -0.377837
2.525000 -65.480428 -71.470633 -0.000000 0.235108 0.491112 -0.148839 155.104570 1107.840768 -0.000000 0.329461 0.164018 -0.377765
2.530000 -66.921247 -62.423708 -0.000000 0.242474 0.494582 -0.149106 176.959274 1023.148267 -0.000000 0.322269 0.161354 -0.377748
2.535000 -69.003138 -51.614970 -0.000000 0.250033 0.497682 -0.149348 193.894732 930.276718 -0.000000 0.314926 0.159106 -0.377917
2.540000 -71.613789 -38.385137 -0.000000 0.257930 0.500201 -0.149660 205.127262 830.301949 -0.000000 0.307453 0.157175 -0.377899
2.545000 -74.502922 -22.319879 -0.000000 0.265903 0.502163 -0.149831 209.699398 726.354900 -0.000000 0.299829 0.155804 -0.377980
2.550000 -77.393094 -3.178372 -0.000000 0.274020 0.503897 -0.150036 208.809481 622.772753 -0.000000 0.292033 0.154820 -0.377986
2.555000 -79.941029 18.897349 -0.000000 0.282039 0.505185 -0.150271 203.591234 523.970723 -0.000000 0.283992 0.154350 -0.378015
2.560000 -81.798258 43.632149 -0.000000 0.290223 0.505927 -0.150474 196.109476 432.842562 -0.000000 0.275729 0.154327 -0.378026
2.565000 -82.666334 70.530479 -0.000000 0.298308 0.506240 -0.150765 187.456542 351.131888 -0.000000 0.267222 0.154794 -0.377955
2.570000 -82.367778 99.079258 -0.000000 0.306128 0.506143 -0.150967 178.463941 279.256681 -0.000000 0.258575 0.155767 -0.377880
2.575000 -80.813051 128.878820 -0.000000 0.313738 0.505314 -0.151383 169.729869 216.461740 -0.000000 0.249939 0.157128 -0.377649
2.580000 -78.087384 159.636002 -0.000000 0.321049 0.504318 -0.151669 161.352852 161.650383 -0.000000 0.241265 0.159162 -0.377448
2.585000 -74.390410 191.264825 -0.000000 0.328033 0.502049 -0.151748 153.326580 114.089288 -0.000000 0.232672 0.161533 -0.377196
2.590000 -70.153809 223.842479 -0.000000 0.334702 0.499486 -0.151594 145.687516 73.767405 -0.000000 0.224252 0.164533 -0.376850
2.595000 -65.786906 257.666235 -0.000000 0.341048 0.496259 -0.151411 138.751234 40.765864 -0.000000 0.216042 0.167898 -0.376628
2.600000 -61.548529 293.172979 -0.000000 0.347156 0.492405 -0.151169 132.882103 14.777908 -0.000000 0.208019 0.171808 -0.376411
2.605000 -58.141145 330.713969 -0.000000 0.352821 0.488128 -0.150940 128.297210 -4.770796 -0.000000 0.200251 0.176025 -0.376349
2.610000 -55.855875 370.630443 -0.000000 0.357941 0.483317 -0.150834 125.078906 -19.023880 -0.000000 0.192790 0.180938 -0.376175
2.615000 -54.227639 413.130574 -0.000000 0.363397 0.477984 -0.150404 123.039832 -29.482239 -0.000000 0.185578 0.186171 -0.375804
2.620000 -53.997251 457.985900 -0.000000 0.368623 0.472130 -0.150441 121.891215 -37.218620 -0.000000 0.178661 0.191790 -0.375583
2.625000 -55.488735 504.811306 -0.000000 0.373651 0.465887 -0.150565 121.235940 -43.324726 -0.000000 0.172106 0.197761 -0.375306
2.630000 -58.582997 553.035653 -0.000000 0.378608 0.459128 -0.150873 120.588826 -48.747169 -0.000000 0.165913 0.203935 -0.375146
2.635000 -63.616124 601.833703 -0.000000 0.383237 0.452201 -0.151048 119.472535 -54.057549 -0.000000 0.160007 0.210461 -0.375050
2.640000 -69.630597 650.413364 -0.000000 0.387910 0.444799 -0.151007 117.287392 -59.822348 -0.000000 0.154449 0.217275 -0.375018
2.645000 -76.978201 697.863981 -0.000000 0.392158 0.437009 -0.151338 113.592273 -66.063367 -0.000000 0.149227 0.224390 -0.375054
2.650000 -85.313670 743.465421 -0.000000 0.396173 0.429101 -0.151977 107.956225 -72.698179 -0.000000 0.144250 0.231828 -0.375149
2.655000 -93.980245 786.717127 -0.000000 0.400000 0.420773 -0.152387 100.043542 -79.454427 -0.000000 0.139673 0.239532 -0.375396
2.660000 -102.276462 827.335422 -0.000000 0.403693 0.412063 -0.152410 89.788736 -85.809436 -0.000000 0.135487 0.247556 -0.375595
2.665000 -110.772186 865.037696 -0.000000 0.407109 0.403028 -0.152527 77.696488 -90.934412 -0.000000 0.131757 0.255572 -0.375849
2.670000 -113.051330 900.508666 -0.000000 0.410277 0.393725 -0.152524 64.062786 -94.572700 -0.000000 0.128412 0.265729 -0.375966
2.675000 -122.034516 931.998905 -0.000000 0.413135 0.384337 -0.152380 51.705564 -95.210596 -0.000000 0.125419 0.273182 -0.376000
2.680000 -125.529629 960.975578 -0.000000 0.415648 0.374685 -0.151989 40.952241 -93.587658 -0.000000 0.123079 0.282102 -0.376177
2.685000 -126.422335 986.986351 -0.000000 0.417633 0.364896 -0.151263 33.291026 -89.798017 -0.000000 0.121139 0.291261 -0.376288
2.690000 -124.534727 1010.004690 -0.000000 0.419140 0.354969 -0.150487 29.188873 -84.478314 -0.000000 0.119728 0.300550 -0.376483
2.695000 -120.053874 1030.082701 -0.000000 0.420838 0.345046 -0.151107 28.573885 -78.365064 -0.000000 0.118764 0.309884 -0.376603
2.700000 -113.892884 1047.419626 -0.000000 0.421804 0.335233 -0.151277 31.041329 -72.152002 -0.000000 0.118417 0.319315 -0.376739
2.705000 -105.820808 1062.618418 -0.000000 0.422364 0.325386 -0.150992 35.828089 -66.471496 -0.000000 0.118513 0.328792 -0.376902
2.710000 -96.446763 1076.388434 -0.000000 0.422381 0.315541 -0.150919 42.088650 -61.821429 -0.000000 0.119147 0.338270 -0.377130
2.715000 -83.325290 1089.752126 -0.000000 0.422123 0.305572 -0.150521 48.774920 -58.740881 -0.000000 0.120293 0.348401 -0.377288
2.720000 -72.861163 1102.976823 -0.000000 0.421156 0.295780 -0.150250 55.331390 -57.268188 -0.000000 0.122054 0.357688 -0.377580
2.725000 -61.597446 1117.080580 -0.000000 0.420124 0.285948 -0.149636 60.767008 -57.659503 -0.000000 0.124356 0.367033 -0.377809
2.730000 -50.460356 1132.669285 -0.000000 0.418312 0.276308 -0.149800 64.579299 -59.771013 -0.000000 0.127196 0.376227 -0.378050
2.735000 -38.673557 1150.330883 -0.000000 0.416171 0.266603 -0.149463 66.413946 -63.396272 -0.000000 0.130551 0.385312 -0.378355
2.740000 -26.295185 1170.354845 -0.000000 0.413490 0.257140 -0.149176 66.121303 -68.202386 -0.000000 0.134429 0.394413 -0.378492
2.745000 -13.302593 1192.666468 -0.000000 0.410297 0.247852 -0.148852 63.699065 -73.857937 -0.000000 0.138838 0.403322 -0.378719
2.750000 0.012892 1216.805628 -0.000000 0.406320 0.238641 -0.148156 59.282752 -80.063654 -0.000000 0.143206 0.411882 -0.378339
2.755000 15.481006 1241.977984 -0.000000 0.402148 0.229795 -0.147776 52.911129 -86.666845 -0.000000 0.148756 0.420359 -0.378642
2.760000 32.270330 1267.100043 -0.000000 0.397553 0.221099 -0.147481 44.819840 -93.441508 -0.000000 0.154718 0.428512 -0.378847
2.765000 50.740337 1290.847023 -0.000000 0.392451 0.212694 -0.147170 35.181656 -100.298923 -0.000000 0.161167 0.436366 -0.378967
2.770000 69.811834 1311.751350 -0.000000 0.386917 0.204718 -0.146855 24.276491 -107.121856 -0.000000 0.167900 0.443858 -0.379010
2.775000 92.989695 1327.978771 -0.000000 0.380852 0.197082 -0.146471 12.048694 -113.819060 -0.000000 0.175732 0.451095 -0.379140
2.780000 114.639408 1338.277196 -0.000000 0.374443 0.189872 -0.146035 -0.743802 -120.132827 -0.000000 0.183266 0.457957 -0.378857
2.785000 136.641579 1341.182936 -0.000000 0.367621 0.183132 -0.144959 -13.992462 -125.938221 -0.000000 0.191163 0.464386 -0.378740
2.790000 158.956723 1335.638606 -0.000000 0.360475 0.177127 -0.144623 -27.514891 -131.104084 -0.000000 0.199660 0.470508 -0.379007
2.795000 179.490259 1321.177102 -0.000000 0.353006 0.171332 -0.144614 -40.979645 -135.609273 -0.000000 0.208014 0.476233 -0.379042
2.800000 196.867755 1297.653444 -0.000000 0.345426 0.166532 -0.144475 -54.101038 -139.442501 -0.000000 0.216388 0.481782 -0.378782
2.805000 212.608123 1264.804639 -0.000000 0.337592 0.162095 -0.144414 -66.807876 -142.358035 -0.000000 0.225121 0.486309 -0.378888
2.810000 224.943735 1223.125161 -0.000000 0.329649 0.158448 -0.144423 -78.586285 -144.183438 -0.000000 0.233742 0.490419 -0.378916
2.815000 235.705102 1172.707908 -0.000000 0.321535 0.155201 -0.144358 -89.375133 -144.602230 -0.000000 0.242616 0.493985 -0.378977
2.820000 244.015989 1114.278394 -0.000000 0.313369 0.152646 -0.144339 -98.941929 -143.511027 -0.000000 0.251634 0.497090 -0.379181
2.825000 249.650192 1048.636218 -0.000000 0.305126 0.150692 -0.144112 -107.226392 -140.810345 -0.000000 0.260628 0.499810 -0.379223
2.830000 253.284637 976.577380 -0.000000 0.296878 0.149403 -0.144138 -114.336692 -136.273418 -0.000000 0.269895 0.501870 -0.379010
2.835000 254.418924 899.438552 -0.000000 0.288541 0.148649 -0.144077 -120.231253 -129.664958 -0.000000 0.279046 0.503470 -0.379154
2.840000 253.641889 818.561988 -0.000000 0.280055 0.148542 -0.144057 -124.983575 -120.485923 -0.000000 0.288151 0.504433 -0.379392
2.845000 250.791788 735.713242 -0.000000 0.271470 0.149075 -0.144087 -128.503304 -108.264651 -0.000000 0.296946 0.503962 -0.379935
2.850000 246.978924 652.282213 -0.000000 0.262778 0.150221 -0.144185 -130.844676 -92.308699 -0.000000 0.305863 0.503604 -0.380030
2.855000 241.880158 569.981004 -0.000000 0.254036 0.151991 -0.144155 -131.865362 -72.293237 -0.000000 0.314641 0.503067 -0.379854
2.860000 235.783058 489.966861 -0.000000 0.245222 0.154289 -0.144202 -131.630660 -48.100682 -0.000000 0.323145 0.501798 -0.379828
2.865000 228.660615 413.011987 -0.000000 0.236452 0.157247 -0.144238 -130.337713 -19.982569 -0.000000 0.331265 0.499792 -0.379763
2.870000 220.588024 339.297948 -0.000000 0.227814 0.160724 -0.144300 -128.279305 11.700658 -0.000000 0.339209 0.497065 -0.379990
2.875000 211.064079 268.982927 -0.000000 0.219366 0.164958 -0.144469 -125.722704 46.318317 -0.000000 0.346782 0.493822 -0.380082
2.880000 199.614489 202.263221 -0.000000 0.211180 0.169796 -0.144680 -122.970481 83.130572 -0.000000 0.353612 0.489750 -0.380201
2.885000 186.330784 139.152155 -0.000000 0.203231 0.175233 -0.144926 -120.104752 121.684503 -0.000000 0.360000 0.484839 -0.380176
2.890000 171.272235 79.987513 -0.000000 0.195498 0.181354 -0.145166 -116.838561 161.608085 -0.000000 0.366293 0.479181 -0.380487
2.895000 154.420770 25.978254 -0.000000 0.188051 0.187959 -0.145647 -113.151818 202.051008 -0.000000 0.371777 0.472949 -0.380635
2.900000 136.353771 -22.466822 -0.000000 0.180885 0.195101 -0.145963 -107.683008 242.616872 -0.000000 0.377475 0.465690 -0.381256
2.905000 117.649008 -63.791637 -0.000000 0.174144 0.202498 -0.146334 -100.186690 281.811771 -0.000000 0.382983 0.458374 -0.381501
2.910000 99.042609 -97.346776 -0.000000 0.167840 0.210285 -0.146617 -88.947879 318.417581 -0.000000 0.388075 0.449710 -0.381731
2.915000 81.718557 -122.187559 -0.000000 0.161963 0.218155 -0.146742 -73.931154 350.495204 -0.000000 0.392848 0.441154 -0.381951
2.920000 66.526768 -138.358313 -0.000000 0.156654 0.226098 -0.146753 -54.473410 376.756731 -0.000000 0.397405 0.432229 -0.382045
2.925000 54.105228 -146.445855 -0.000000 0.151810 0.234313 -0.146540 -30.743607 396.532224 -0.000000 0.401630 0.423047 -0.381964
